<svg width="135" height="40" viewBox="0 0 135 40" fill="none" xmlns="http://www.w3.org/2000/svg">
<g id="Frame" clip-path="url(#clip0_1_154)">
<g id="Group">
<path id="Vector" d="M130.197 40H4.729C2.122 40 0 37.872 0 35.267V4.726C0 2.12 2.122 0 4.729 0H130.197C132.803 0 135 2.12 135 4.726V35.267C135 37.872 132.803 40 130.197 40Z" fill="#A6A6A6"/>
<path id="Vector_2" d="M134.032 35.2677C134.032 37.3837 132.318 39.0976 130.198 39.0976H4.72901C2.61001 39.0976 0.890015 37.3837 0.890015 35.2677V4.72465C0.890015 2.60965 2.61001 0.889648 4.72901 0.889648H130.197C132.318 0.889648 134.031 2.60965 134.031 4.72465L134.032 35.2677Z" fill="black"/>
<g id="Group_2">
<g id="Group_3">
<path id="Vector_3" d="M30.128 19.7842C30.099 16.5612 32.767 14.9932 32.889 14.9202C31.378 12.7172 29.036 12.4162 28.213 12.3922C26.246 12.1852 24.338 13.5692 23.336 13.5692C22.314 13.5692 20.771 12.4122 19.108 12.4462C16.968 12.4792 14.966 13.7182 13.868 15.6422C11.602 19.5652 13.292 25.3302 15.463 28.5012C16.549 30.0542 17.818 31.7882 19.479 31.7272C21.104 31.6602 21.711 30.6912 23.672 30.6912C25.615 30.6912 26.185 31.7272 27.879 31.6882C29.623 31.6602 30.721 30.1282 31.769 28.5612C33.024 26.7812 33.528 25.0282 33.548 24.9382C33.507 24.9242 30.161 23.6472 30.128 19.7842Z" fill="white"/>
<path id="Vector_4" d="M26.928 10.3058C27.802 9.2128 28.4 7.7258 28.234 6.2168C26.969 6.2728 25.387 7.0918 24.476 8.1608C23.67 9.1028 22.95 10.6468 23.136 12.0988C24.557 12.2048 26.016 11.3818 26.928 10.3058Z" fill="white"/>
</g>
</g>
<g id="Group_4">
<path id="Vector_5" d="M53.645 31.5043H51.374L50.13 27.5953H45.806L44.621 31.5043H42.41L46.694 18.1963H49.34L53.645 31.5043ZM49.755 25.9553L48.63 22.4803C48.511 22.1253 48.288 21.2893 47.959 19.9733H47.919C47.788 20.5393 47.577 21.3753 47.287 22.4803L46.182 25.9553H49.755Z" fill="white"/>
<path id="Vector_6" d="M64.662 26.5879C64.662 28.2199 64.221 29.5099 63.339 30.4569C62.549 31.2999 61.568 31.7209 60.397 31.7209C59.133 31.7209 58.225 31.2669 57.672 30.3589H57.632V35.4139H55.5V25.0669C55.5 24.0409 55.473 22.9879 55.421 21.9079H57.296L57.415 23.4289H57.455C58.166 22.2829 59.245 21.7109 60.693 21.7109C61.825 21.7109 62.77 22.1579 63.526 23.0529C64.284 23.9489 64.662 25.1269 64.662 26.5879ZM62.49 26.6659C62.49 25.7319 62.28 24.9619 61.858 24.3559C61.397 23.7239 60.778 23.4079 60.002 23.4079C59.476 23.4079 58.998 23.5839 58.571 23.9309C58.143 24.2809 57.863 24.7379 57.732 25.3039C57.666 25.5679 57.633 25.7839 57.633 25.9539V27.5539C57.633 28.2519 57.847 28.8409 58.275 29.3219C58.703 29.8029 59.259 30.0429 59.943 30.0429C60.746 30.0429 61.371 29.7329 61.818 29.1149C62.266 28.4959 62.49 27.6799 62.49 26.6659Z" fill="white"/>
<path id="Vector_7" d="M75.699 26.5879C75.699 28.2199 75.258 29.5099 74.375 30.4569C73.586 31.2999 72.605 31.7209 71.434 31.7209C70.17 31.7209 69.262 31.2669 68.71 30.3589H68.67V35.4139H66.538V25.0669C66.538 24.0409 66.511 22.9879 66.459 21.9079H68.334L68.453 23.4289H68.493C69.203 22.2829 70.282 21.7109 71.731 21.7109C72.862 21.7109 73.807 22.1579 74.565 23.0529C75.32 23.9489 75.699 25.1269 75.699 26.5879ZM73.527 26.6659C73.527 25.7319 73.316 24.9619 72.894 24.3559C72.433 23.7239 71.816 23.4079 71.039 23.4079C70.512 23.4079 70.035 23.5839 69.607 23.9309C69.179 24.2809 68.9 24.7379 68.769 25.3039C68.704 25.5679 68.67 25.7839 68.67 25.9539V27.5539C68.67 28.2519 68.884 28.8409 69.31 29.3219C69.738 29.8019 70.294 30.0429 70.98 30.0429C71.783 30.0429 72.408 29.7329 72.855 29.1149C73.303 28.4959 73.527 27.6799 73.527 26.6659Z" fill="white"/>
<path id="Vector_8" d="M88.039 27.772C88.039 28.904 87.646 29.825 86.857 30.536C85.99 31.313 84.783 31.701 83.232 31.701C81.8 31.701 80.652 31.425 79.783 30.872L80.277 29.095C81.213 29.661 82.24 29.945 83.359 29.945C84.162 29.945 84.787 29.763 85.236 29.401C85.683 29.039 85.906 28.553 85.906 27.947C85.906 27.407 85.722 26.952 85.353 26.583C84.986 26.214 84.373 25.871 83.517 25.554C81.187 24.685 80.023 23.412 80.023 21.738C80.023 20.644 80.431 19.747 81.248 19.049C82.062 18.35 83.148 18.001 84.506 18.001C85.717 18.001 86.723 18.212 87.526 18.633L86.993 20.371C86.243 19.963 85.395 19.759 84.446 19.759C83.696 19.759 83.11 19.944 82.69 20.312C82.335 20.641 82.157 21.042 82.157 21.517C82.157 22.043 82.36 22.478 82.768 22.82C83.123 23.136 83.768 23.478 84.704 23.847C85.849 24.308 86.69 24.847 87.231 25.465C87.77 26.081 88.039 26.852 88.039 27.772Z" fill="white"/>
<path id="Vector_9" d="M95.088 23.5076H92.738V28.1666C92.738 29.3516 93.152 29.9436 93.982 29.9436C94.363 29.9436 94.679 29.9106 94.929 29.8446L94.988 31.4636C94.568 31.6206 94.015 31.6996 93.33 31.6996C92.488 31.6996 91.83 31.4426 91.355 30.9296C90.882 30.4156 90.644 29.5536 90.644 28.3426V23.5056H89.244V21.9056H90.644V20.1486L92.738 19.5166V21.9056H95.088V23.5076Z" fill="white"/>
<path id="Vector_10" d="M105.691 26.6269C105.691 28.1019 105.269 29.3129 104.427 30.2599C103.544 31.2349 102.372 31.7209 100.911 31.7209C99.503 31.7209 98.382 31.2539 97.546 30.3199C96.71 29.3859 96.292 28.2069 96.292 26.7859C96.292 25.2989 96.722 24.0809 97.585 23.1339C98.446 22.1859 99.608 21.7119 101.069 21.7119C102.477 21.7119 103.61 22.1789 104.465 23.1139C105.283 24.0209 105.691 25.1919 105.691 26.6269ZM103.479 26.6959C103.479 25.8109 103.29 25.0519 102.907 24.4189C102.46 23.6529 101.821 23.2709 100.993 23.2709C100.136 23.2709 99.485 23.6539 99.038 24.4189C98.655 25.0529 98.466 25.8239 98.466 26.7359C98.466 27.6209 98.655 28.3799 99.038 29.0119C99.499 29.7779 100.143 30.1599 100.974 30.1599C101.788 30.1599 102.427 29.7699 102.888 28.9919C103.281 28.3469 103.479 27.5799 103.479 26.6959Z" fill="white"/>
<path id="Vector_11" d="M112.621 23.7829C112.41 23.7439 112.185 23.7239 111.949 23.7239C111.199 23.7239 110.619 24.0069 110.211 24.5739C109.856 25.0739 109.678 25.7059 109.678 26.4689V31.5039H107.547L107.567 24.9299C107.567 23.8239 107.54 22.8169 107.487 21.9089H109.344L109.422 23.7449H109.481C109.706 23.1139 110.061 22.6059 110.547 22.2249C111.022 21.8819 111.535 21.7109 112.088 21.7109C112.285 21.7109 112.463 21.7249 112.621 21.7499V23.7829Z" fill="white"/>
<path id="Vector_12" d="M122.156 26.2524C122.156 26.6344 122.131 26.9564 122.078 27.2194H115.682C115.707 28.1674 116.016 28.8924 116.61 29.3924C117.149 29.8394 117.846 30.0634 118.702 30.0634C119.649 30.0634 120.513 29.9124 121.29 29.6094L121.624 31.0894C120.716 31.4854 119.644 31.6824 118.407 31.6824C116.919 31.6824 115.751 31.2444 114.901 30.3694C114.053 29.4944 113.628 28.3194 113.628 26.8454C113.628 25.3984 114.023 24.1934 114.814 23.2324C115.642 22.2064 116.761 21.6934 118.169 21.6934C119.552 21.6934 120.599 22.2064 121.31 23.2324C121.873 24.0474 122.156 25.0554 122.156 26.2524ZM120.123 25.6994C120.137 25.0674 119.998 24.5214 119.709 24.0604C119.34 23.4674 118.773 23.1714 118.01 23.1714C117.313 23.1714 116.746 23.4604 116.313 24.0404C115.958 24.5014 115.747 25.0544 115.682 25.6984H120.123V25.6994Z" fill="white"/>
</g>
<g id="Group_5">
<g id="Group_6">
<path id="Vector_13" d="M49.05 10.0087C49.05 11.1857 48.697 12.0717 47.992 12.6667C47.339 13.2157 46.411 13.4907 45.209 13.4907C44.613 13.4907 44.103 13.4647 43.676 13.4127V6.9817C44.233 6.8917 44.833 6.8457 45.481 6.8457C46.626 6.8457 47.489 7.0947 48.071 7.5927C48.723 8.1557 49.05 8.9607 49.05 10.0087ZM47.945 10.0377C47.945 9.2747 47.743 8.6897 47.339 8.2817C46.935 7.8747 46.345 7.6707 45.568 7.6707C45.238 7.6707 44.957 7.6927 44.724 7.7387V12.6277C44.853 12.6477 45.089 12.6567 45.432 12.6567C46.234 12.6567 46.853 12.4337 47.289 11.9877C47.725 11.5417 47.945 10.8917 47.945 10.0377Z" fill="white"/>
<path id="Vector_14" d="M54.9091 11.037C54.9091 11.762 54.7021 12.356 54.2881 12.822C53.8541 13.301 53.2791 13.54 52.5611 13.54C51.8691 13.54 51.3181 13.311 50.9071 12.851C50.4971 12.392 50.2921 11.813 50.2921 11.115C50.2921 10.385 50.5031 9.78605 50.9271 9.32105C51.3511 8.85605 51.9211 8.62305 52.6391 8.62305C53.3311 8.62305 53.8871 8.85205 54.3081 9.31105C54.7081 9.75705 54.9091 10.333 54.9091 11.037ZM53.8221 11.071C53.8221 10.636 53.7281 10.263 53.5411 9.95205C53.3211 9.57605 53.0081 9.38805 52.6011 9.38805C52.1801 9.38805 51.8601 9.57605 51.6401 9.95205C51.4521 10.263 51.3591 10.642 51.3591 11.09C51.3591 11.525 51.4531 11.898 51.6401 12.209C51.8671 12.585 52.1831 12.773 52.5911 12.773C52.9911 12.773 53.3051 12.582 53.5311 12.199C53.7251 11.882 53.8221 11.506 53.8221 11.071Z" fill="white"/>
<path id="Vector_15" d="M62.7651 8.71875L61.2901 13.4327H60.3301L59.7191 11.3857C59.5641 10.8747 59.4381 10.3668 59.3401 9.86275H59.3211C59.2301 10.3808 59.1041 10.8877 58.9421 11.3857L58.2931 13.4327H57.3221L55.9351 8.71875H57.0121L57.5451 10.9598C57.6741 11.4898 57.7801 11.9947 57.8651 12.4727H57.8841C57.9621 12.0787 58.0911 11.5768 58.2731 10.9698L58.9421 8.71975H59.7961L60.4371 10.9218C60.5921 11.4588 60.7181 11.9758 60.8151 12.4738H60.8441C60.9151 11.9887 61.0221 11.4718 61.1641 10.9218L61.7361 8.71975H62.7651V8.71875Z" fill="white"/>
<path id="Vector_16" d="M68.198 13.4331H67.15V10.7331C67.15 9.90112 66.834 9.48512 66.2 9.48512C65.889 9.48512 65.638 9.59912 65.443 9.82812C65.25 10.0571 65.152 10.3271 65.152 10.6361V13.4321H64.104V10.0661C64.104 9.65212 64.091 9.20312 64.066 8.71712H64.987L65.036 9.45412H65.065C65.187 9.22512 65.369 9.03612 65.608 8.88512C65.892 8.70912 66.21 8.62012 66.558 8.62012C66.998 8.62012 67.364 8.76212 67.655 9.04712C68.017 9.39612 68.198 9.91712 68.198 10.6091V13.4331Z" fill="white"/>
<path id="Vector_17" d="M71.088 13.4327H70.041V6.55566H71.088V13.4327Z" fill="white"/>
<path id="Vector_18" d="M77.2581 11.037C77.2581 11.762 77.0511 12.356 76.6371 12.822C76.2031 13.301 75.6271 13.54 74.9101 13.54C74.2171 13.54 73.6661 13.311 73.2561 12.851C72.8461 12.392 72.6411 11.813 72.6411 11.115C72.6411 10.385 72.8521 9.78605 73.2761 9.32105C73.7001 8.85605 74.2701 8.62305 74.9871 8.62305C75.6801 8.62305 76.2351 8.85205 76.6571 9.31105C77.0571 9.75705 77.2581 10.333 77.2581 11.037ZM76.1701 11.071C76.1701 10.636 76.0761 10.263 75.8891 9.95205C75.6701 9.57605 75.3561 9.38805 74.9501 9.38805C74.5281 9.38805 74.2081 9.57605 73.9891 9.95205C73.8011 10.263 73.7081 10.642 73.7081 11.09C73.7081 11.525 73.8021 11.898 73.9891 12.209C74.2161 12.585 74.5321 12.773 74.9401 12.773C75.3401 12.773 75.6531 12.582 75.8791 12.199C76.0741 11.882 76.1701 11.506 76.1701 11.071Z" fill="white"/>
<path id="Vector_19" d="M82.33 13.433H81.389L81.311 12.89H81.282C80.96 13.323 80.501 13.54 79.905 13.54C79.46 13.54 79.1 13.397 78.829 13.113C78.583 12.855 78.46 12.534 78.46 12.153C78.46 11.577 78.7 11.138 79.183 10.834C79.665 10.53 80.343 10.381 81.216 10.388V10.3C81.216 9.67905 80.89 9.36905 80.237 9.36905C79.772 9.36905 79.362 9.48605 79.008 9.71805L78.795 9.03005C79.233 8.75905 79.774 8.62305 80.412 8.62305C81.644 8.62305 82.262 9.27305 82.262 10.573V12.309C82.262 12.78 82.285 13.155 82.33 13.433ZM81.242 11.813V11.086C80.086 11.066 79.508 11.383 79.508 12.036C79.508 12.282 79.574 12.466 79.709 12.589C79.844 12.712 80.016 12.773 80.221 12.773C80.451 12.773 80.666 12.7 80.862 12.555C81.059 12.409 81.18 12.224 81.225 11.997C81.236 11.946 81.242 11.884 81.242 11.813Z" fill="white"/>
<path id="Vector_20" d="M88.285 13.4327H87.355L87.306 12.6757H87.277C86.98 13.2517 86.474 13.5397 85.763 13.5397C85.195 13.5397 84.722 13.3167 84.347 12.8707C83.972 12.4247 83.785 11.8457 83.785 11.1347C83.785 10.3717 83.988 9.75366 84.396 9.28166C84.791 8.84166 85.275 8.62166 85.851 8.62166C86.484 8.62166 86.927 8.83466 87.179 9.26166H87.199V6.55566H88.248V12.1627C88.248 12.6217 88.26 13.0447 88.285 13.4327ZM87.199 11.4447V10.6587C87.199 10.5227 87.189 10.4127 87.17 10.3287C87.111 10.0767 86.984 9.86466 86.791 9.69366C86.596 9.52266 86.361 9.43666 86.09 9.43666C85.699 9.43666 85.393 9.59166 85.168 9.90266C84.945 10.2137 84.832 10.6107 84.832 11.0957C84.832 11.5617 84.939 11.9397 85.154 12.2307C85.381 12.5407 85.687 12.6957 86.07 12.6957C86.414 12.6957 86.689 12.5667 86.898 12.3077C87.1 12.0687 87.199 11.7807 87.199 11.4447Z" fill="white"/>
<path id="Vector_21" d="M97.248 11.037C97.248 11.762 97.041 12.356 96.627 12.822C96.193 13.301 95.619 13.54 94.9 13.54C94.209 13.54 93.658 13.311 93.246 12.851C92.836 12.392 92.631 11.813 92.631 11.115C92.631 10.385 92.842 9.78605 93.266 9.32105C93.69 8.85605 94.26 8.62305 94.979 8.62305C95.67 8.62305 96.227 8.85205 96.647 9.31105C97.047 9.75705 97.248 10.333 97.248 11.037ZM96.162 11.071C96.162 10.636 96.068 10.263 95.881 9.95205C95.66 9.57605 95.348 9.38805 94.94 9.38805C94.52 9.38805 94.2 9.57605 93.979 9.95205C93.791 10.263 93.698 10.642 93.698 11.09C93.698 11.525 93.792 11.898 93.979 12.209C94.206 12.585 94.522 12.773 94.93 12.773C95.33 12.773 95.645 12.582 95.871 12.199C96.064 11.882 96.162 11.506 96.162 11.071Z" fill="white"/>
<path id="Vector_22" d="M102.883 13.4331H101.836V10.7331C101.836 9.90112 101.52 9.48512 100.885 9.48512C100.574 9.48512 100.323 9.59912 100.129 9.82812C99.935 10.0571 99.838 10.3271 99.838 10.6361V13.4321H98.789V10.0661C98.789 9.65212 98.777 9.20312 98.752 8.71712H99.672L99.721 9.45412H99.75C99.873 9.22512 100.055 9.03612 100.293 8.88512C100.578 8.70912 100.895 8.62012 101.244 8.62012C101.683 8.62012 102.049 8.76212 102.34 9.04712C102.703 9.39612 102.883 9.91712 102.883 10.6091V13.4331Z" fill="white"/>
<path id="Vector_23" d="M109.936 9.50392H108.782V11.7939C108.782 12.3759 108.987 12.6669 109.393 12.6669C109.581 12.6669 109.737 12.6509 109.86 12.6179L109.887 13.4129C109.68 13.4909 109.408 13.5299 109.073 13.5299C108.659 13.5299 108.337 13.4039 108.104 13.1519C107.87 12.8999 107.754 12.4759 107.754 11.8809V9.50392H107.065V8.71892H107.754V7.85492L108.781 7.54492V8.71792H109.935V9.50392H109.936Z" fill="white"/>
<path id="Vector_24" d="M115.484 13.4327H114.435V10.7527C114.435 9.90766 114.119 9.48466 113.486 9.48466C113 9.48466 112.668 9.72966 112.486 10.2197C112.455 10.3227 112.437 10.4487 112.437 10.5967V13.4317H111.39V6.55566H112.437V9.39666H112.457C112.787 8.87966 113.26 8.62166 113.873 8.62166C114.307 8.62166 114.666 8.76366 114.951 9.04866C115.306 9.40366 115.484 9.93166 115.484 10.6297V13.4327Z" fill="white"/>
<path id="Vector_25" d="M121.207 10.8523C121.207 11.0403 121.193 11.1983 121.168 11.3273H118.025C118.039 11.7933 118.189 12.1483 118.48 12.3943C118.746 12.6143 119.089 12.7243 119.509 12.7243C119.974 12.7243 120.398 12.6503 120.78 12.5013L120.944 13.2293C120.497 13.4233 119.971 13.5203 119.362 13.5203C118.632 13.5203 118.057 13.3053 117.641 12.8753C117.223 12.4453 117.016 11.8683 117.016 11.1443C117.016 10.4333 117.209 9.84128 117.598 9.36928C118.004 8.86528 118.553 8.61328 119.246 8.61328C119.924 8.61328 120.439 8.86528 120.787 9.36928C121.068 9.76928 121.207 10.2643 121.207 10.8523ZM120.207 10.5813C120.215 10.2703 120.146 10.0023 120.004 9.77628C119.822 9.48528 119.545 9.33928 119.17 9.33928C118.828 9.33928 118.549 9.48128 118.336 9.76628C118.162 9.99328 118.059 10.2643 118.025 10.5813H120.207Z" fill="white"/>
</g>
</g>
</g>
</g>
<defs>
<clipPath id="clip0_1_154">
<rect width="135" height="40" fill="white"/>
</clipPath>
</defs>
</svg>
